<svg width="720" height="720" viewBox="0 0 720 720" fill="none" xmlns="http://www.w3.org/2000/svg">
<circle cx="360" cy="360" r="354" fill="#FFFBE9" stroke="#514F16" stroke-width="12"/>
<path d="M358.5 465.5V342.5" stroke="#AD8B73" stroke-width="8" stroke-linecap="round"/>
<path d="M150.5 646.5C306 577.5 405 574.5 566 646.5" stroke="#514F16" stroke-width="12" stroke-linecap="round"/>
<path d="M208 680C330.344 638.003 392.792 636.669 514 680" stroke="#514F16" stroke-width="12" stroke-linecap="round"/>
<path d="M112.5 612.5C295.056 512.778 416 509 606.5 612.5" stroke="#514F16" stroke-width="12" stroke-linecap="round"/>
<path d="M79.5 572C290 435 420.5 434 640.5 572" stroke="#514F16" stroke-width="12" stroke-linecap="round"/>
<path d="M178.5 263V271" stroke="#514F16" stroke-width="8" stroke-linecap="round"/>
<path d="M201 263L201 279" stroke="#514F16" stroke-width="8" stroke-linecap="round"/>
<path d="M222.5 262.988V284.012" stroke="#514F16" stroke-width="8" stroke-linecap="round"/>
<path d="M244 263V288" stroke="#514F16" stroke-width="8" stroke-linecap="round"/>
<path d="M266 267V297" stroke="#514F16" stroke-width="8" stroke-linecap="round"/>
<path d="M289 274V309" stroke="#514F16" stroke-width="8" stroke-linecap="round"/>
<path d="M312 283V321" stroke="#514F16" stroke-width="8" stroke-linecap="round"/>
<path d="M334 294V335" stroke="#514F16" stroke-width="8" stroke-linecap="round"/>
<path d="M377 330L424 352" stroke="#514F16" stroke-width="8" stroke-linecap="round"/>
<path d="M394 316L458 346" stroke="#514F16" stroke-width="8" stroke-linecap="round"/>
<path d="M413 302L478 333" stroke="#514F16" stroke-width="8" stroke-linecap="round"/>
<path d="M433 288L497 318" stroke="#514F16" stroke-width="8" stroke-linecap="round"/>
<path d="M458 276L511 302" stroke="#514F16" stroke-width="8" stroke-linecap="round"/>
<path d="M482 264L526 284" stroke="#514F16" stroke-width="8" stroke-linecap="round"/>
<path d="M507 253L540 268" stroke="#514F16" stroke-width="8" stroke-linecap="round"/>
<path d="M531 244L550 253" stroke="#514F16" stroke-width="8" stroke-linecap="round"/>
<path d="M360 340.354L356.496 338.425L354.297 342.42L358.544 344.08L360 340.354ZM427.651 241.637L424.769 238.864V238.864L427.651 241.637ZM566 231.278L569.381 233.416L572.477 228.52L566.801 227.359L566 231.278ZM360.912 336.45C359.228 337.879 359.021 340.403 360.45 342.088C361.879 343.772 364.403 343.979 366.088 342.55L360.912 336.45ZM559.594 239.347C561.719 238.743 562.952 236.531 562.347 234.406C561.743 232.281 559.531 231.048 557.406 231.653L559.594 239.347ZM360 340.354C363.504 342.284 363.504 342.284 363.504 342.283C363.504 342.283 363.505 342.282 363.505 342.282C363.506 342.28 363.508 342.277 363.51 342.274C363.514 342.266 363.52 342.255 363.528 342.239C363.545 342.209 363.571 342.162 363.605 342.101C363.674 341.977 363.777 341.791 363.913 341.547C364.185 341.059 364.589 340.336 365.115 339.403C366.169 337.537 367.71 334.832 369.657 331.482C373.553 324.782 379.07 315.513 385.552 305.242C398.563 284.626 415.294 260.245 430.533 244.411L424.769 238.864C408.925 255.326 391.831 280.304 378.787 300.972C372.241 311.344 366.673 320.698 362.741 327.461C360.775 330.843 359.217 333.579 358.148 335.471C357.614 336.418 357.203 337.153 356.924 337.654C356.785 337.904 356.678 338.095 356.607 338.225C356.571 338.29 356.543 338.339 356.525 338.373C356.516 338.389 356.509 338.402 356.504 338.411C356.501 338.415 356.5 338.419 356.498 338.421C356.498 338.422 356.497 338.423 356.497 338.424C356.496 338.425 356.496 338.425 360 340.354ZM430.533 244.411C437.415 237.261 448.918 232.772 463.06 230.336C477.086 227.92 493.087 227.625 508.293 228.342C523.473 229.058 537.714 230.773 548.171 232.312C553.396 233.082 557.666 233.805 560.624 234.336C562.103 234.601 563.254 234.818 564.031 234.968C564.42 235.042 564.715 235.1 564.912 235.14C565.01 235.159 565.083 235.174 565.131 235.183C565.155 235.188 565.173 235.192 565.184 235.194C565.19 235.195 565.194 235.196 565.196 235.197C565.197 235.197 565.198 235.197 565.199 235.197C565.199 235.197 565.199 235.197 566 231.278C566.801 227.359 566.8 227.359 566.799 227.359C566.798 227.359 566.796 227.358 566.794 227.358C566.79 227.357 566.784 227.356 566.777 227.354C566.762 227.351 566.74 227.347 566.713 227.341C566.658 227.33 566.577 227.314 566.471 227.293C566.26 227.251 565.949 227.19 565.544 227.112C564.735 226.956 563.551 226.733 562.036 226.461C559.007 225.918 554.654 225.181 549.337 224.398C538.71 222.833 524.192 221.083 508.67 220.351C493.174 219.621 476.53 219.898 461.702 222.452C446.99 224.986 433.428 229.866 424.769 238.864L430.533 244.411ZM566 231.278C562.619 229.14 562.619 229.14 562.619 229.14C562.619 229.141 562.619 229.141 562.618 229.142C562.617 229.144 562.615 229.148 562.612 229.152C562.606 229.161 562.597 229.175 562.585 229.194C562.561 229.232 562.525 229.29 562.476 229.366C562.378 229.52 562.231 229.749 562.036 230.052C561.648 230.656 561.07 231.55 560.317 232.699C558.812 234.997 556.61 238.314 553.832 242.38C548.273 250.513 540.415 261.626 531.217 273.547C512.7 297.546 489.173 324.258 468.242 336.933L472.385 343.776C494.726 330.248 519.042 302.422 537.551 278.434C546.866 266.361 554.816 255.118 560.437 246.894C563.248 242.78 565.479 239.419 567.009 237.082C567.775 235.914 568.365 235.001 568.765 234.379C568.965 234.068 569.118 233.829 569.221 233.667C569.273 233.586 569.312 233.525 569.339 233.483C569.352 233.462 569.362 233.446 569.369 233.434C569.373 233.429 569.375 233.425 569.377 233.422C569.378 233.42 569.379 233.419 569.38 233.418C569.38 233.417 569.381 233.416 566 231.278ZM468.242 336.933C447.818 349.3 421.4 349.457 399.514 346.223C388.658 344.619 379.112 342.211 372.28 340.202C368.867 339.198 366.141 338.297 364.276 337.65C363.344 337.327 362.629 337.067 362.151 336.891C361.912 336.802 361.733 336.735 361.616 336.69C361.558 336.668 361.515 336.652 361.488 336.641C361.475 336.636 361.466 336.632 361.46 336.63C361.457 336.629 361.456 336.629 361.455 336.628C361.455 336.628 361.455 336.628 361.455 336.628C361.455 336.628 361.456 336.629 360 340.354C358.544 344.08 358.545 344.08 358.547 344.081C358.548 344.081 358.549 344.082 358.551 344.083C358.554 344.084 358.559 344.086 358.564 344.088C358.575 344.092 358.59 344.098 358.609 344.105C358.647 344.12 358.701 344.141 358.771 344.167C358.91 344.22 359.113 344.297 359.376 344.394C359.902 344.588 360.668 344.866 361.654 345.208C363.625 345.892 366.474 346.833 370.023 347.877C377.113 349.962 387.032 352.466 398.345 354.137C420.798 357.455 449.537 357.612 472.385 343.776L468.242 336.933ZM366.088 342.55C400.072 313.721 427.609 293.881 457.002 278.28C486.396 262.678 517.797 251.235 559.594 239.347L557.406 231.653C515.329 243.62 483.336 255.245 453.251 271.213C423.165 287.182 395.14 307.414 360.912 336.45L366.088 342.55Z" fill="#AFAD55"/>
<path d="M144 270C238.679 285.211 285.409 302.729 356 352M356.389 354.878C356.389 354.878 286.981 384.402 246.153 354.878C205.325 325.355 140 267.68 140 267.68C140 267.68 178.787 243.649 277.455 267.68C376.123 291.711 356.389 354.878 356.389 354.878Z" stroke="#AFAD55" stroke-width="8"/>
<path d="M138.016 443.144C136.192 443.144 134.728 442.616 133.624 441.56C132.568 440.456 132.04 438.992 132.04 437.168V405.344C132.04 403.52 132.568 402.08 133.624 401.024C134.728 399.92 136.192 399.368 138.016 399.368H161.848C162.136 399.848 162.4 400.448 162.64 401.168C162.88 401.888 163 402.704 163 403.616C163 405.2 162.64 406.376 161.92 407.144C161.248 407.912 160.288 408.296 159.04 408.296H143.056V416.36H159.76C160.048 416.84 160.312 417.44 160.552 418.16C160.792 418.88 160.912 419.696 160.912 420.608C160.912 422.192 160.576 423.368 159.904 424.136C159.232 424.856 158.272 425.216 157.024 425.216H143.056V434.216H162.136C162.424 434.696 162.688 435.32 162.928 436.088C163.168 436.856 163.288 437.696 163.288 438.608C163.288 440.192 162.928 441.344 162.208 442.064C161.536 442.784 160.6 443.144 159.4 443.144H138.016ZM184.589 435.008C187.133 435.008 188.933 434.576 189.989 433.712C191.093 432.8 191.645 431.72 191.645 430.472C191.645 429.32 191.213 428.408 190.349 427.736C189.533 427.016 188.285 426.392 186.605 425.864L182.933 424.712C180.917 424.088 179.093 423.416 177.461 422.696C175.829 421.928 174.437 421.04 173.285 420.032C172.133 418.976 171.221 417.752 170.549 416.36C169.925 414.92 169.613 413.192 169.613 411.176C169.613 407.144 171.125 403.952 174.149 401.6C177.221 399.248 181.469 398.072 186.893 398.072C188.957 398.072 190.853 398.216 192.581 398.504C194.357 398.792 195.869 399.248 197.117 399.872C198.365 400.448 199.349 401.168 200.069 402.032C200.789 402.896 201.149 403.904 201.149 405.056C201.149 406.16 200.861 407.144 200.285 408.008C199.757 408.824 199.133 409.52 198.413 410.096C197.309 409.328 195.845 408.68 194.021 408.152C192.197 407.624 190.205 407.36 188.045 407.36C185.741 407.36 184.037 407.72 182.933 408.44C181.829 409.16 181.277 410.072 181.277 411.176C181.277 412.136 181.637 412.88 182.357 413.408C183.077 413.888 184.205 414.392 185.741 414.92L189.629 416.216C191.885 416.984 193.853 417.824 195.533 418.736C197.261 419.6 198.701 420.608 199.853 421.76C201.005 422.864 201.869 424.16 202.445 425.648C203.021 427.088 203.309 428.744 203.309 430.616C203.309 432.632 202.901 434.48 202.085 436.16C201.317 437.792 200.141 439.208 198.557 440.408C197.021 441.608 195.101 442.544 192.797 443.216C190.541 443.888 187.925 444.224 184.949 444.224C182.741 444.224 180.701 444.032 178.829 443.648C176.957 443.312 175.325 442.808 173.933 442.136C172.589 441.464 171.509 440.648 170.693 439.688C169.925 438.68 169.541 437.552 169.541 436.304C169.541 435.008 169.901 433.928 170.621 433.064C171.389 432.2 172.229 431.504 173.141 430.976C174.437 432.032 176.045 432.968 177.965 433.784C179.933 434.6 182.141 435.008 184.589 435.008ZM230.038 408.44V442.928C229.51 443.072 228.766 443.192 227.806 443.288C226.846 443.432 225.838 443.504 224.782 443.504C222.526 443.504 220.942 443.12 220.03 442.352C219.118 441.584 218.662 440.192 218.662 438.176V408.44H207.358C207.07 407.96 206.782 407.336 206.494 406.568C206.254 405.8 206.134 404.96 206.134 404.048C206.134 402.416 206.494 401.24 207.214 400.52C207.934 399.752 208.918 399.368 210.166 399.368H241.63C241.966 399.848 242.254 400.472 242.494 401.24C242.734 402.008 242.854 402.848 242.854 403.76C242.854 405.344 242.494 406.52 241.774 407.288C241.054 408.056 240.07 408.44 238.822 408.44H230.038ZM242.278 437.672C242.278 435.848 242.83 434.312 243.934 433.064C245.086 431.816 246.67 431.192 248.686 431.192C250.654 431.192 252.214 431.816 253.366 433.064C254.518 434.312 255.094 435.848 255.094 437.672C255.094 439.496 254.518 441.032 253.366 442.28C252.214 443.528 250.654 444.152 248.686 444.152C246.67 444.152 245.086 443.528 243.934 442.28C242.83 441.032 242.278 439.496 242.278 437.672Z" fill="#603D3D"/>
<path d="M465.248 405.2C465.248 402.944 466.424 401.216 468.776 400.016C471.176 398.816 474.296 398.216 478.136 398.216C480.872 398.216 483.296 398.552 485.408 399.224C487.52 399.896 489.272 400.832 490.664 402.032C492.056 403.184 493.112 404.576 493.832 406.208C494.552 407.792 494.912 409.52 494.912 411.392C494.912 413.984 494.192 416.48 492.752 418.88C491.36 421.28 489.152 423.728 486.128 426.224L476.264 434.432H494.336C494.576 434.864 494.816 435.464 495.056 436.232C495.296 437 495.416 437.792 495.416 438.608C495.416 440.144 495.08 441.272 494.408 441.992C493.736 442.664 492.824 443 491.672 443H466.544C464.576 441.656 463.592 439.64 463.592 436.952C463.592 435.512 463.88 434.288 464.456 433.28C465.08 432.224 465.776 431.36 466.544 430.688L477.056 421.472C479.6 419.264 481.352 417.464 482.312 416.072C483.272 414.632 483.752 413.288 483.752 412.04C483.752 410.504 483.176 409.304 482.024 408.44C480.872 407.528 479.216 407.072 477.056 407.072C475.04 407.072 473.264 407.384 471.728 408.008C470.24 408.584 468.968 409.232 467.912 409.952C467.192 409.424 466.568 408.776 466.04 408.008C465.512 407.24 465.248 406.304 465.248 405.2ZM527.643 421.112C527.643 416.456 526.923 412.952 525.483 410.6C524.091 408.2 522.195 407 519.795 407C517.395 407 515.499 408.2 514.107 410.6C512.763 412.952 512.091 416.456 512.091 421.112C512.091 425.912 512.739 429.488 514.035 431.84C515.379 434.144 517.299 435.296 519.795 435.296C522.291 435.296 524.211 434.144 525.555 431.84C526.947 429.488 527.643 425.912 527.643 421.112ZM519.867 444.08C517.083 444.08 514.515 443.6 512.163 442.64C509.859 441.68 507.867 440.24 506.187 438.32C504.555 436.4 503.283 434.024 502.371 431.192C501.459 428.312 501.003 424.952 501.003 421.112C501.003 417.32 501.459 414.008 502.371 411.176C503.331 408.296 504.651 405.896 506.331 403.976C508.011 402.056 510.003 400.616 512.307 399.656C514.611 398.696 517.131 398.216 519.867 398.216C522.555 398.216 525.051 398.696 527.355 399.656C529.659 400.616 531.651 402.056 533.331 403.976C535.011 405.896 536.331 408.296 537.291 411.176C538.251 414.008 538.731 417.32 538.731 421.112C538.731 424.952 538.251 428.312 537.291 431.192C536.379 434.024 535.083 436.4 533.403 438.32C531.771 440.24 529.779 441.68 527.427 442.64C525.123 443.6 522.603 444.08 519.867 444.08ZM544.912 405.2C544.912 402.944 546.088 401.216 548.44 400.016C550.84 398.816 553.96 398.216 557.8 398.216C560.536 398.216 562.96 398.552 565.072 399.224C567.184 399.896 568.936 400.832 570.328 402.032C571.72 403.184 572.776 404.576 573.496 406.208C574.216 407.792 574.576 409.52 574.576 411.392C574.576 413.984 573.856 416.48 572.416 418.88C571.024 421.28 568.816 423.728 565.792 426.224L555.928 434.432H574C574.24 434.864 574.48 435.464 574.72 436.232C574.96 437 575.08 437.792 575.08 438.608C575.08 440.144 574.744 441.272 574.072 441.992C573.4 442.664 572.488 443 571.336 443H546.208C544.24 441.656 543.256 439.64 543.256 436.952C543.256 435.512 543.544 434.288 544.12 433.28C544.744 432.224 545.44 431.36 546.208 430.688L556.72 421.472C559.264 419.264 561.016 417.464 561.976 416.072C562.936 414.632 563.416 413.288 563.416 412.04C563.416 410.504 562.84 409.304 561.688 408.44C560.536 407.528 558.88 407.072 556.72 407.072C554.704 407.072 552.928 407.384 551.392 408.008C549.904 408.584 548.632 409.232 547.576 409.952C546.856 409.424 546.232 408.776 545.704 408.008C545.176 407.24 544.912 406.304 544.912 405.2ZM582.248 405.2C582.248 402.944 583.424 401.216 585.776 400.016C588.176 398.816 591.296 398.216 595.136 398.216C597.872 398.216 600.296 398.552 602.408 399.224C604.52 399.896 606.272 400.832 607.664 402.032C609.056 403.184 610.112 404.576 610.832 406.208C611.552 407.792 611.912 409.52 611.912 411.392C611.912 413.984 611.192 416.48 609.752 418.88C608.36 421.28 606.152 423.728 603.128 426.224L593.264 434.432H611.336C611.576 434.864 611.816 435.464 612.056 436.232C612.296 437 612.416 437.792 612.416 438.608C612.416 440.144 612.08 441.272 611.408 441.992C610.736 442.664 609.824 443 608.672 443H583.544C581.576 441.656 580.592 439.64 580.592 436.952C580.592 435.512 580.88 434.288 581.456 433.28C582.08 432.224 582.776 431.36 583.544 430.688L594.056 421.472C596.6 419.264 598.352 417.464 599.312 416.072C600.272 414.632 600.752 413.288 600.752 412.04C600.752 410.504 600.176 409.304 599.024 408.44C597.872 407.528 596.216 407.072 594.056 407.072C592.04 407.072 590.264 407.384 588.728 408.008C587.24 408.584 585.968 409.232 584.912 409.952C584.192 409.424 583.568 408.776 583.04 408.008C582.512 407.24 582.248 406.304 582.248 405.2Z" fill="#603D3D"/>
<circle cx="325" cy="227" r="20" fill="#AD8B73"/>
<circle cx="408" cy="130" r="20" fill="#AD8B73"/>
<circle cx="255" cy="195" r="12" fill="#AD8B73"/>
<circle cx="391" cy="195" r="12" fill="#AD8B73"/>
<circle cx="317" cy="159" r="12" fill="#AD8B73"/>
<circle cx="440" cy="191" r="12" fill="#AD8B73"/>
<circle cx="475" cy="110" r="12" fill="#AD8B73"/>
<circle cx="357" cy="86" r="12" fill="#AD8B73"/>
<circle cx="267" cy="110" r="12" fill="#AD8B73"/>
<path d="M200 314L155.5 276L203 285L245 297L283.5 313L315.5 330L350 353L333 358.5L312 363L290.5 364L271 362L255 356L241.5 346.5L200 314Z" fill="#C6DDA2" stroke="#AFAD55"/>
<path d="M439.5 280L371.5 328C390.617 296.072 401.601 277.855 424 251C431.45 241.608 436.937 237.72 448.5 233C466.471 229.195 466.217 227.627 491.5 228C516.783 228.373 530.324 229.574 553 233L498.5 251C475.648 259.606 463.072 267.399 439.5 280Z" fill="#C6DDA2"/>
</svg>
