{
  "accessors": [
    {
      "bufferView": 2,
      "componentType": 5126,
      "count": 7173,
      "max": [
        1.864233374595642,
        2.6385202407836914,
        1.8043253421783447
      ],
      "min": [
        -1.898410677909851,
        -1.592214584350586,
        -2.54199481010437
      ],
      "type": "VEC3"
    },
    {
      "bufferView": 2,
      "byteOffset": 86076,
      "componentType": 5126,
      "count": 7173,
      "max": [
        0.9999452829360962,
        0.9999903440475464,
        0.9999886751174927
      ],
      "min": [
        -0.9999798536300659,
        -0.9999781847000122,
        -0.9999246597290039
      ],
      "type": "VEC3"
    },
    {
      "bufferView": 1,
      "componentType": 5126,
      "count": 7173,
      "max": [
        0.977605938911438,
        0.981410026550293
      ],
      "min": [
        0.023077601566910744,
        0.016810908913612366
      ],
      "type": "VEC2"
    },
    {
      "bufferView": 0,
      "componentType": 5125,
      "count": 38016,
      "type": "SCALAR"
    },
    {
      "bufferView": 3,
      "componentType": 5126,
      "count": 238,
      "max": [
        4.958333492279053
      ],
      "min": [
        0.0
      ],
      "type": "SCALAR"
    },
    {
      "bufferView": 4,
      "componentType": 5126,
      "count": 238,
      "max": [
        0.49361905455589294,
        0.7071056365966797,
        0.7071055769920349,
        0.7070997357368469
      ],
      "min": [
        -0.7070996761322021,
        -0.4957640469074249,
        -0.4957622289657593,
        -0.493619441986084
      ],
      "type": "VEC4"
    }
  ],
  "animations": [
    {
      "channels": [
        {
          "sampler": 0,
          "target": {
            "node": 4,
            "path": "rotation"
          }
        }
      ],
      "name": "CatBanana|CatBananaAction",
      "samplers": [
        {
          "input": 4,
          "interpolation": "LINEAR",
          "output": 5
        }
      ]
    }
  ],
  "asset": {
    "extras": {
      "author": "LightKyro (https://sketchfab.com/LightKyro)",
      "license": "CC-BY-4.0 (http://creativecommons.org/licenses/by/4.0/)",
      "source": "https://sketchfab.com/3d-models/cat-banana-8bffe4341fa74fb3816a6208d5610678",
      "title": "Cat Banana"
    },
    "generator": "Sketchfab-12.79.0",
    "version": "2.0"
  },
  "bufferViews": [
    {
      "buffer": 0,
      "byteLength": 152064,
      "name": "floatBufferViews",
      "target": 34963
    },
    {
      "buffer": 0,
      "byteLength": 57384,
      "byteOffset": 152064,
      "byteStride": 8,
      "name": "floatBufferViews",
      "target": 34962
    },
    {
      "buffer": 0,
      "byteLength": 172152,
      "byteOffset": 209448,
      "byteStride": 12,
      "name": "floatBufferViews",
      "target": 34962
    },
    {
      "buffer": 0,
      "byteLength": 952,
      "byteOffset": 381600,
      "name": "floatBufferViews"
    },
    {
      "buffer": 0,
      "byteLength": 3808,
      "byteOffset": 382552,
      "byteStride": 16,
      "name": "floatBufferViews"
    }
  ],
  "buffers": [
    {
      "byteLength": 386360,
      "uri": "scene.bin"
    }
  ],
  "extensionsUsed": [
    "KHR_materials_unlit"
  ],
  "images": [
    {
      "uri": "textures/CatBanana_baseColor.png"
    }
  ],
  "materials": [
    {
      "doubleSided": true,
      "extensions": {
        "KHR_materials_unlit": {}
      },
      "name": "CatBanana",
      "pbrMetallicRoughness": {
        "baseColorTexture": {
          "index": 0
        },
        "metallicFactor": 0.0
      }
    }
  ],
  "meshes": [
    {
      "name": "CatBanana_CatBanana_0",
      "primitives": [
        {
          "attributes": {
            "NORMAL": 1,
            "POSITION": 0,
            "TEXCOORD_0": 2
          },
          "indices": 3,
          "material": 0,
          "mode": 4
        }
      ]
    }
  ],
  "nodes": [
    {
      "children": [
        1
      ],
      "matrix": [
        1.0,
        0.0,
        0.0,
        0.0,
        0.0,
        2.220446049250313e-16,
        -1.0,
        0.0,
        0.0,
        1.0,
        2.220446049250313e-16,
        0.0,
        0.0,
        0.0,
        0.0,
        1.0
      ],
      "name": "Sketchfab_model"
    },
    {
      "children": [
        2
      ],
      "matrix": [
        0.009999999776482582,
        0.0,
        0.0,
        0.0,
        0.0,
        0.0,
        0.009999999776482582,
        0.0,
        0.0,
        -0.009999999776482582,
        0.0,
        0.0,
        0.0,
        0.0,
        0.0,
        1.0
      ],
      "name": "5556a9aba69540399036708c13020a77.fbx"
    },
    {
      "children": [
        3
      ],
      "name": "Object_2"
    },
    {
      "children": [
        4
      ],
      "name": "RootNode"
    },
    {
      "children": [
        5
      ],
      "name": "CatBanana",
      "rotation": [
        -0.7064997553825378,
        0.029292671009898186,
        0.029292671009898186,
        0.7064998149871826
      ],
      "scale": [
        168.6246337890625,
        168.6246337890625,
        168.6246337890625
      ],
      "translation": [
        -1.2370394468307495,
        -125.0790023803711,
        -3.025972843170166
      ]
    },
    {
      "mesh": 0,
      "name": "CatBanana_CatBanana_0"
    }
  ],
  "samplers": [
    {
      "magFilter": 9729,
      "minFilter": 9987,
      "wrapS": 10497,
      "wrapT": 10497
    }
  ],
  "scene": 0,
  "scenes": [
    {
      "name": "Sketchfab_Scene",
      "nodes": [
        0
      ]
    }
  ],
  "textures": [
    {
      "sampler": 0,
      "source": 0
    }
  ]
}
